<?xml version="1.0" encoding="utf-8"?>
<!-- Generator: Adobe Illustrator 26.0.3, SVG Export Plug-In . SVG Version: 6.00 Build 0)  -->
<svg version="1.1" id="Calque_1" xmlns="http://www.w3.org/2000/svg" xmlns:xlink="http://www.w3.org/1999/xlink" x="0px" y="0px"
	 viewBox="0 0 30 30" style="enable-background:new 0 0 30 30;" xml:space="preserve">
<style type="text/css">
	.st0{fill:#878787;}
</style>
<g>
	<path class="st0" d="M26.8,22.8H3.2c-0.5,0-0.9-0.4-0.9-0.9v-1.1c0-0.5,0.4-0.9,0.9-0.9h23.6c0.5,0,0.9,0.4,0.9,0.9v1.1
		C27.7,22.4,27.3,22.8,26.8,22.8z"/>
	<path class="st0" d="M18.8,12.2l-2.6,2.6V8.3c0-0.6-0.5-1.1-1.1-1.1h0c-0.6,0-1.1,0.5-1.1,1.1v6.5l-2.6-2.6c-0.4-0.4-1.2-0.4-1.6,0
		l0,0c-0.4,0.4-0.4,1.2,0,1.6l4.6,4.6c0.4,0.4,1.2,0.4,1.6,0l0.8-0.8l3.8-3.8c0.4-0.4,0.4-1.2,0-1.6l0,0
		C19.9,11.8,19.2,11.8,18.8,12.2z"/>
</g>
</svg>
