<?xml version="1.0" encoding="utf-8"?>
<!-- Generator: Adobe Illustrator 26.0.3, SVG Export Plug-In . SVG Version: 6.00 Build 0)  -->
<svg version="1.1" xmlns="http://www.w3.org/2000/svg" xmlns:xlink="http://www.w3.org/1999/xlink" x="0px" y="0px"
	 viewBox="0 0 140 140" style="enable-background:new 0 0 140 140;" xml:space="preserve">
<style type="text/css">
	.st0{display:none;}
	.st1{display:inline;}
	.st2{fill:#1D1D1B;stroke:#1D1D1B;stroke-width:1.545;stroke-linecap:round;stroke-linejoin:round;stroke-miterlimit:10;}
	.st3{fill:#FFFFFF;stroke:#1D1D1B;stroke-width:1.545;stroke-miterlimit:10;}
	.st4{fill:none;stroke:#1D1D1B;stroke-width:1.545;stroke-miterlimit:10;}
	.st5{fill:#1D1D1B;stroke:#1D1D1B;stroke-width:1.545;stroke-miterlimit:10;}
</style>
<g id="Calque_1" class="st0">
	<g id="OpgxzC_00000101083133171004005770000001060209319471978167_" class="st1">
		
			<image style="overflow:visible;" width="1024" height="1024" id="OpgxzC_00000100350183395976640300000016680136583028839584_" xlink:href="61E88466FAB72C69.jpg"  transform="matrix(1 0 0 1 -192.3854 -476.4287)">
		</image>
	</g>
</g>
<g id="Calque_2">
	<g>
		<path class="st2" d="M11.2,89.2c0,0,5.8,17.8-0.9,25.4l15-8.9"/>
		<path class="st3" d="M128,34.5c-3.2-5.6-8.7-9.1-14.5-9.1c-2.5,0-4.9,0.7-6.9,1.9L23.3,57.4c-0.1,0.1-0.3,0.1-0.4,0.2l0,0l0,0
			c-0.8,0.4-1.6,0.8-2.4,1.2C15,62.1,11.2,67.7,10,74.5c-1.2,6.5,0,13.3,3.4,19.3c4.9,8.7,13.4,14.1,22.4,14.1c3.8,0,7.5-1,10.7-2.9
			l77-47.7C130.6,53,132.6,42.8,128,34.5z"/>
		<path class="st4" d="M35.7,107.9c-8.9,0-17.5-5.4-22.4-14.1C10,87.8,8.8,81,10,74.5c1.3-6.9,5-12.4,10.5-15.7
			c3.2-1.9,6.9-2.9,10.7-2.9c8.9,0,17.5,5.4,22.4,14.1c7.1,12.7,3.9,28.5-7.1,35.1C43.2,106.9,39.5,107.9,35.7,107.9z"/>
		
			<ellipse transform="matrix(0.9026 -0.4305 0.4305 0.9026 -31.9971 22.3776)" class="st5" cx="33.4" cy="81.9" rx="16.5" ry="19.6"/>
	</g>
</g>
</svg>
