<?xml version="1.0" encoding="utf-8"?>
<!-- Generator: Adobe Illustrator 26.0.3, SVG Export Plug-In . SVG Version: 6.00 Build 0)  -->
<svg version="1.1" xmlns="http://www.w3.org/2000/svg" xmlns:xlink="http://www.w3.org/1999/xlink" x="0px" y="0px"
	 viewBox="0 0 140 140" style="enable-background:new 0 0 140 140;" xml:space="preserve">
<style type="text/css">
	.st0{display:none;}
	.st1{display:inline;}
	.st2{fill:none;stroke:#1D1D1B;stroke-width:1.4436;stroke-linecap:round;stroke-linejoin:round;stroke-miterlimit:10;}
</style>
<g id="Calque_1" class="st0">
	<g id="OpgxzC_00000101083133171004005770000001060209319471978167_" class="st1">
		
			<image style="overflow:visible;" width="1024" height="1024" id="OpgxzC_00000100350183395976640300000016680136583028839584_" xlink:href="D02EA31CDF81B4E1.jpg"  transform="matrix(1 0 0 1 -192.3854 -476.4287)">
		</image>
	</g>
</g>
<g id="Calque_2">
	<g>
		<polygon class="st2" points="90.1,65.8 9.6,65.8 72.1,46.5 130.4,44.7 		"/>
		<polyline class="st2" points="90.1,65.8 9.6,65.8 9.6,73.9 90.1,73.9 130.4,48.2 130.4,44.7 90.1,65.8 90.1,73.9 		"/>
		<polyline class="st2" points="90.1,76.6 9.6,76.6 9.6,84.8 90.1,84.8 130.4,53.7 130.4,50.1 90.1,76.6 90.1,84.8 		"/>
		<polyline class="st2" points="90.1,87.1 9.6,87.1 9.6,95.3 90.1,95.3 130.4,59.2 130.4,55.7 90.1,87.1 90.1,95.3 		"/>
	</g>
</g>
</svg>
